<svg fill="#000000" xmlns="http://www.w3.org/2000/svg"  viewBox="0 0 32 32" width="32px" height="32px"><path d="M 15.748047 2.0039062 C 10.549084 2.1456012 6.34375 6.4291389 6.34375 11.667969 C 6.34375 14.55592 7.3463014 16.664416 8.5566406 18.425781 C 9.7669799 20.187147 11.144523 21.649608 12.130859 23.474609 C 13.200984 25.455619 13.676077 27.220041 13.876953 28.220703 C 14.081361 29.243856 14.994784 30 16.042969 30 C 17.053966 30 17.949683 29.298259 18.1875 28.3125 L 18.1875 28.310547 C 18.479456 27.094226 19.113815 24.862247 19.882812 23.488281 C 20.802768 21.845102 21.965792 20.520786 23.046875 19.046875 C 24.127958 17.572964 25.12082 15.921658 25.503906 13.730469 C 26.492112 8.0793511 22.569332 2.491572 16.800781 2.03125 C 16.446309 2.0029311 16.094644 1.9944599 15.748047 2.0039062 z M 15.798828 4.0019531 C 16.075851 3.9947879 16.356722 4.0027095 16.640625 4.0253906 C 16.910861 4.046955 17.175864 4.0853186 17.435547 4.1347656 L 13.564453 8.6503906 L 10.615234 6.21875 C 11.951651 4.8939037 13.77015 4.0544251 15.798828 4.0019531 z M 19.455078 4.8496094 C 20.667725 5.4870168 21.677604 6.445578 22.402344 7.6054688 L 19.783203 10.662109 C 19.61918 10.16155 19.373568 9.6849116 19.007812 9.2734375 C 18.451286 8.6473445 17.60103 8.2746081 16.644531 8.1289062 L 19.455078 4.8496094 z M 9.3847656 7.7988281 L 12.261719 10.169922 L 8.7109375 14.3125 C 8.4805196 13.534848 8.34375 12.676498 8.34375 11.667969 C 8.34375 10.2547 8.7235072 8.9341576 9.3847656 7.7988281 z M 23.308594 9.6230469 C 23.660046 10.809031 23.759547 12.092347 23.533203 13.386719 C 23.22029 15.17653 22.44201 16.490395 21.433594 17.865234 C 20.425177 19.240074 19.180763 20.646898 18.136719 22.511719 C 17.161716 24.253753 16.554185 26.552071 16.244141 27.84375 C 16.219957 27.943991 16.149971 28 16.042969 28 C 15.933744 28 15.860166 27.94009 15.837891 27.828125 C 15.606767 26.676787 15.078501 24.724381 13.890625 22.525391 C 13.675872 22.128036 13.44182 21.767358 13.208984 21.40625 L 18.816406 14.865234 C 18.871486 14.810974 18.956882 14.783864 19.007812 14.726562 C 19.080523 14.644763 19.105402 14.539564 19.169922 14.453125 L 23.308594 9.6230469 z M 16.009766 10 C 16.759765 10 17.194992 10.245244 17.511719 10.601562 C 17.828446 10.957881 18.009766 11.472222 18.009766 12 C 18.009766 12.471772 17.821312 12.903021 17.564453 13.25 L 17.398438 13.443359 C 17.087948 13.756703 16.703276 14 16.009766 14 C 15.259766 14 14.824541 13.754756 14.507812 13.398438 C 14.191085 13.042118 14.009766 12.527778 14.009766 12 C 14.009766 11.485395 14.19392 10.991733 14.496094 10.636719 L 14.535156 10.589844 C 14.850427 10.244113 15.273552 10 16.009766 10 z M 12.228516 13.28125 C 12.391151 13.802198 12.632523 14.299968 13.011719 14.726562 C 13.558502 15.341695 14.391519 15.70772 15.326172 15.861328 L 12.027344 19.710938 C 11.386162 18.866831 10.749925 18.085866 10.205078 17.292969 C 9.9887074 16.978092 9.7969224 16.659495 9.609375 16.337891 L 12.228516 13.28125 z"/></svg>